<?xml version="1.0" encoding="UTF-8"?>
<svg width="900" height="600" viewBox="0 0 900 600" fill="none" xmlns="http://www.w3.org/2000/svg">
  <path fill="#E8F4FF" d="M0 0h900v600H0z"/>
  <circle cx="450" cy="300" r="200" fill="#2196F3" fill-opacity=".2"/>
  <path fill="#2196F3" d="M451.9 148.2c-83.8 0-151.8 68-151.8 151.8s68 151.8 151.8 151.8 151.8-68 151.8-151.8-68-151.8-151.8-151.8zm0 273.2c-67 0-121.4-54.4-121.4-121.4s54.4-121.4 121.4-121.4 121.4 54.4 121.4 121.4-54.4 121.4-121.4 121.4z"/>
  <path fill="#1976D2" d="M451.9 178.6c-67 0-121.4 54.4-121.4 121.4s54.4 121.4 121.4 121.4 121.4-54.4 121.4-121.4-54.4-121.4-121.4-121.4zm60.7 182.1c-16.8 16.8-39 26-62.6 26s-45.8-9.2-62.6-26c-16.8-16.8-26-39-26-62.6s9.2-45.8 26-62.6c16.8-16.8 39-26 62.6-26s45.8 9.2 62.6 26c34.5 34.5 34.5 90.7 0 125.2z"/>
  <circle cx="451.9" cy="300" r="30.4" fill="#1565C0"/>
</svg>
